<svg width="447" height="440" viewBox="0 0 447 440" fill="none" xmlns="http://www.w3.org/2000/svg">
<mask id="path-1-inside-1_97_5332" fill="white">
<path d="M440.155 168.486C440.235 170.634 441.848 179.396 441.848 179.396C441.848 179.396 436.467 193.224 434.854 193.298C433.24 193.377 417.788 194.454 412.715 201.598C407.642 208.743 409.643 219.882 409.871 225.8C410.104 231.64 414.636 236.324 410.179 239.166C405.721 242.009 404.877 232.404 396.727 243.93C388.581 255.455 385.35 258.834 387.122 261.369C388.889 263.983 389.812 275.201 389.812 275.201C389.812 275.201 382.431 278.198 379.82 280.426C377.279 282.653 376.36 288.568 377.587 291.718C378.743 294.868 376.668 294.868 369.366 300.783C362.06 306.701 352.683 311.847 350.072 314.615L349.764 314.997C349.07 315.687 347.689 317.071 345.768 318.837C345.227 319.378 344.612 319.914 343.922 320.604C342.999 321.526 341.922 322.528 340.77 323.6C340.154 324.215 339.539 324.756 338.923 325.371C332.624 331.285 324.781 338.43 318.557 344.036C317.941 344.498 317.4 345.038 316.864 345.5H316.789C316.328 345.882 315.941 346.269 315.479 346.651C314.635 347.341 313.866 348.11 313.097 348.65C312.943 348.804 312.868 348.879 312.789 348.879C312.327 349.34 311.791 349.722 311.33 350.109C310.868 350.491 310.486 350.799 310.024 351.106C309.255 351.722 308.565 352.183 308.103 352.49C301.799 356.485 287.811 368.164 284.734 372.083C281.736 375.923 278.891 387.756 278.97 389.905C279.045 392.058 281.274 395.208 276.662 398.513C271.976 401.966 266.596 401.048 265.285 408.039C263.98 415.029 264.595 419.331 263.211 424.634C261.83 430.087 263.444 431.625 257.219 435.54C250.915 439.539 244.532 440 244.532 440C243.459 437.618 238.079 430.087 237.692 429.011C237.384 427.934 224.086 428.936 222.011 430.087C219.936 431.239 212.252 435.312 209.944 436.924C207.64 438.616 194.953 436.924 185.04 435.694C175.123 434.468 176.89 430.623 176.736 426.708C176.582 422.71 173.51 418.795 170.591 413.571C167.746 408.346 170.744 403.429 170.665 400.507C170.591 397.59 170.898 393.745 168.898 389.29C166.823 384.834 162.981 382.606 162.519 376.459C162.058 370.312 164.594 367.548 165.131 361.173C165.671 354.718 161.671 354.639 161.135 352.798C160.519 350.953 158.981 345.113 157.983 340.89C156.985 336.663 149.142 332.669 143.146 329.747C137.154 326.751 137.765 329.98 134.077 330.055C130.389 330.209 121.702 327.827 118.629 323.908C115.552 320.068 112.018 318.301 108.787 318.376C105.56 318.53 105.098 326.522 97.1065 328.671C89.1892 330.824 62.4393 329.98 55.753 330.209C49.0622 330.442 43.0704 326.369 38.3051 321.606C33.6145 316.763 34.0761 321.913 28.9239 321.834C23.8509 321.759 20.6243 322.374 15.859 322.295C11.0145 322.221 11.6299 316.842 15.0105 315.379C18.4702 313.92 18.3954 304.856 18.2416 300.321C18.0877 295.791 15.7051 296.635 13.7049 292.715C11.7091 288.8 15.859 285.417 15.859 285.417C15.859 285.417 19.5472 270.052 21.0858 259.295C22.5453 248.539 19.0109 239.856 16.3953 234.557C13.784 229.333 9.86274 224.645 4.86445 218.115C-0.129446 211.661 -0.283282 195.069 0.178302 193.452C0.639885 191.839 14.7072 188.922 14.7072 188.922C14.7072 188.922 17.78 184.774 13.8588 180.929C9.9375 177.089 4.86442 176.707 1.563 173.631C-1.74282 170.56 1.02233 166.412 2.32796 163.415C3.55885 160.418 14.3994 134.679 16.6282 129.995C18.857 125.381 22.7783 130.606 25.161 129.687C27.5436 128.839 26.1589 120.311 24.6202 114.243C23.0816 108.175 22.009 109.018 22.2376 107.406C22.4706 105.793 24.4663 95.8057 25.5434 87.5056C26.5413 79.2098 28.6954 79.3636 30.5417 77.6719C32.3089 75.9802 36.7665 73.1374 36.3797 69.6838C35.9972 66.2257 30.234 62.6886 26.6204 57.6971C24.3917 54.7005 23.8509 49.7046 23.7762 45.9434C25.4643 45.8643 27.1567 45.7896 29.0778 45.5567C37.0742 44.7131 40.8416 45.0954 46.0685 42.2525C51.3701 39.3349 66.3606 26.5794 71.3545 16.2097C76.3528 5.8356 88.9562 13.4415 94.1831 13.213C99.5638 12.9845 100.025 12.444 102.562 8.60369C105.098 4.7634 110.479 5.68182 116.401 5.45333C122.239 5.22485 149.837 13.2877 151.987 13.7491C154.141 14.2104 172.819 26.3508 182.965 26.5793C193.111 26.7331 191.96 23.5826 193.494 21.3549C195.032 19.1272 202.95 15.6736 211.865 13.213C220.859 10.7524 221.242 20.8979 225.624 23.8902C230.007 26.966 234.54 28.9608 234.54 28.9608C234.54 28.9608 241.692 25.428 244.229 20.5903C246.765 15.6735 249.455 15.5945 249.455 15.5945C249.455 15.5945 264.367 0.0750366 265.98 0.000339723C267.594 -0.0787511 271.822 13.6743 271.976 17.9012C272.13 22.2029 268.517 24.9667 264.982 29.4222C261.369 33.8029 259.909 38.1836 259.984 39.7171C260.059 41.3341 267.901 49.6298 269.44 49.5508C271.053 49.4761 282.197 48.0173 284.887 47.9382C287.503 47.8635 301.109 53.2417 306.49 53.0089C306.49 53.0089 300.801 58.0793 306.872 62.6886C312.868 67.2231 327.854 67.7637 327.854 67.7637C327.854 67.7637 325.551 78.5157 323.476 80.2073C321.401 81.899 316.249 85.893 320.632 88.3536C325.014 90.8098 324.628 95.652 332.009 92.194C339.385 88.7359 331.314 87.4309 342.001 88.0461C352.683 88.7359 354.222 87.0443 358.143 92.2686C362.06 97.493 370.285 101.412 377.973 107.098C385.737 112.705 403.339 113.627 407.181 114.014C410.948 114.396 422.325 118.316 424.018 120.851C425.706 123.461 426.857 125.535 433.394 128.532C439.927 131.454 442.309 138.365 447 143.515C441.848 148.203 437.619 150.277 437.773 153.731C437.619 157.343 440.081 166.333 440.155 168.486Z"/>
</mask>
<path d="M440.155 168.486C440.235 170.634 441.848 179.396 441.848 179.396C441.848 179.396 436.467 193.224 434.854 193.298C433.24 193.377 417.788 194.454 412.715 201.598C407.642 208.743 409.643 219.882 409.871 225.8C410.104 231.64 414.636 236.324 410.179 239.166C405.721 242.009 404.877 232.404 396.727 243.93C388.581 255.455 385.35 258.834 387.122 261.369C388.889 263.983 389.812 275.201 389.812 275.201C389.812 275.201 382.431 278.198 379.82 280.426C377.279 282.653 376.36 288.568 377.587 291.718C378.743 294.868 376.668 294.868 369.366 300.783C362.06 306.701 352.683 311.847 350.072 314.615L349.764 314.997C349.07 315.687 347.689 317.071 345.768 318.837C345.227 319.378 344.612 319.914 343.922 320.604C342.999 321.526 341.922 322.528 340.77 323.6C340.154 324.215 339.539 324.756 338.923 325.371C332.624 331.285 324.781 338.43 318.557 344.036C317.941 344.498 317.4 345.038 316.864 345.5H316.789C316.328 345.882 315.941 346.269 315.479 346.651C314.635 347.341 313.866 348.11 313.097 348.65C312.943 348.804 312.868 348.879 312.789 348.879C312.327 349.34 311.791 349.722 311.33 350.109C310.868 350.491 310.486 350.799 310.024 351.106C309.255 351.722 308.565 352.183 308.103 352.49C301.799 356.485 287.811 368.164 284.734 372.083C281.736 375.923 278.891 387.756 278.97 389.905C279.045 392.058 281.274 395.208 276.662 398.513C271.976 401.966 266.596 401.048 265.285 408.039C263.98 415.029 264.595 419.331 263.211 424.634C261.83 430.087 263.444 431.625 257.219 435.54C250.915 439.539 244.532 440 244.532 440C243.459 437.618 238.079 430.087 237.692 429.011C237.384 427.934 224.086 428.936 222.011 430.087C219.936 431.239 212.252 435.312 209.944 436.924C207.64 438.616 194.953 436.924 185.04 435.694C175.123 434.468 176.89 430.623 176.736 426.708C176.582 422.71 173.51 418.795 170.591 413.571C167.746 408.346 170.744 403.429 170.665 400.507C170.591 397.59 170.898 393.745 168.898 389.29C166.823 384.834 162.981 382.606 162.519 376.459C162.058 370.312 164.594 367.548 165.131 361.173C165.671 354.718 161.671 354.639 161.135 352.798C160.519 350.953 158.981 345.113 157.983 340.89C156.985 336.663 149.142 332.669 143.146 329.747C137.154 326.751 137.765 329.98 134.077 330.055C130.389 330.209 121.702 327.827 118.629 323.908C115.552 320.068 112.018 318.301 108.787 318.376C105.56 318.53 105.098 326.522 97.1065 328.671C89.1892 330.824 62.4393 329.98 55.753 330.209C49.0622 330.442 43.0704 326.369 38.3051 321.606C33.6145 316.763 34.0761 321.913 28.9239 321.834C23.8509 321.759 20.6243 322.374 15.859 322.295C11.0145 322.221 11.6299 316.842 15.0105 315.379C18.4702 313.92 18.3954 304.856 18.2416 300.321C18.0877 295.791 15.7051 296.635 13.7049 292.715C11.7091 288.8 15.859 285.417 15.859 285.417C15.859 285.417 19.5472 270.052 21.0858 259.295C22.5453 248.539 19.0109 239.856 16.3953 234.557C13.784 229.333 9.86274 224.645 4.86445 218.115C-0.129446 211.661 -0.283282 195.069 0.178302 193.452C0.639885 191.839 14.7072 188.922 14.7072 188.922C14.7072 188.922 17.78 184.774 13.8588 180.929C9.9375 177.089 4.86442 176.707 1.563 173.631C-1.74282 170.56 1.02233 166.412 2.32796 163.415C3.55885 160.418 14.3994 134.679 16.6282 129.995C18.857 125.381 22.7783 130.606 25.161 129.687C27.5436 128.839 26.1589 120.311 24.6202 114.243C23.0816 108.175 22.009 109.018 22.2376 107.406C22.4706 105.793 24.4663 95.8057 25.5434 87.5056C26.5413 79.2098 28.6954 79.3636 30.5417 77.6719C32.3089 75.9802 36.7665 73.1374 36.3797 69.6838C35.9972 66.2257 30.234 62.6886 26.6204 57.6971C24.3917 54.7005 23.8509 49.7046 23.7762 45.9434C25.4643 45.8643 27.1567 45.7896 29.0778 45.5567C37.0742 44.7131 40.8416 45.0954 46.0685 42.2525C51.3701 39.3349 66.3606 26.5794 71.3545 16.2097C76.3528 5.8356 88.9562 13.4415 94.1831 13.213C99.5638 12.9845 100.025 12.444 102.562 8.60369C105.098 4.7634 110.479 5.68182 116.401 5.45333C122.239 5.22485 149.837 13.2877 151.987 13.7491C154.141 14.2104 172.819 26.3508 182.965 26.5793C193.111 26.7331 191.96 23.5826 193.494 21.3549C195.032 19.1272 202.95 15.6736 211.865 13.213C220.859 10.7524 221.242 20.8979 225.624 23.8902C230.007 26.966 234.54 28.9608 234.54 28.9608C234.54 28.9608 241.692 25.428 244.229 20.5903C246.765 15.6735 249.455 15.5945 249.455 15.5945C249.455 15.5945 264.367 0.0750366 265.98 0.000339723C267.594 -0.0787511 271.822 13.6743 271.976 17.9012C272.13 22.2029 268.517 24.9667 264.982 29.4222C261.369 33.8029 259.909 38.1836 259.984 39.7171C260.059 41.3341 267.901 49.6298 269.44 49.5508C271.053 49.4761 282.197 48.0173 284.887 47.9382C287.503 47.8635 301.109 53.2417 306.49 53.0089C306.49 53.0089 300.801 58.0793 306.872 62.6886C312.868 67.2231 327.854 67.7637 327.854 67.7637C327.854 67.7637 325.551 78.5157 323.476 80.2073C321.401 81.899 316.249 85.893 320.632 88.3536C325.014 90.8098 324.628 95.652 332.009 92.194C339.385 88.7359 331.314 87.4309 342.001 88.0461C352.683 88.7359 354.222 87.0443 358.143 92.2686C362.06 97.493 370.285 101.412 377.973 107.098C385.737 112.705 403.339 113.627 407.181 114.014C410.948 114.396 422.325 118.316 424.018 120.851C425.706 123.461 426.857 125.535 433.394 128.532C439.927 131.454 442.309 138.365 447 143.515C441.848 148.203 437.619 150.277 437.773 153.731C437.619 157.343 440.081 166.333 440.155 168.486Z" stroke="#5B86B1" stroke-width="4" mask="url(#path-1-inside-1_97_5332)"/>
</svg>
